<svg width="35" height="48" viewBox="0 0 35 48" fill="none" xmlns="http://www.w3.org/2000/svg">
<path fill-rule="evenodd" clip-rule="evenodd" d="M4.13793 0H30.6207C32.9023 0 34.7586 1.85628 34.7586 4.13793V43.8621C34.7586 46.1437 32.9023 48 30.6207 48H4.13793C1.85628 48 0 46.1437 0 43.8621V4.13793C0 1.85628 1.85628 0 4.13793 0ZM30.6207 46.3448C31.9895 46.3448 33.1035 45.2309 33.1035 43.8621V4.13793C33.1035 2.7691 31.9895 1.65517 30.6207 1.65517H4.13793C2.7691 1.65517 1.65517 2.7691 1.65517 4.13793V43.8621C1.65517 45.2309 2.7691 46.3448 4.13793 46.3448H30.6207Z" fill="#014593"/>
<path d="M27.3103 39.7241H7.44819C6.99054 39.7241 6.62061 40.0941 6.62061 40.5517C6.62061 41.0094 6.99054 41.3793 7.44819 41.3793H27.3103C27.7679 41.3793 28.1378 41.0094 28.1378 40.5517C28.1378 40.0941 27.7679 39.7241 27.3103 39.7241Z" fill="#014593"/>
<path d="M27.3103 36.4138H7.44819C6.99054 36.4138 6.62061 36.7837 6.62061 37.2414C6.62061 37.6991 6.99054 38.069 7.44819 38.069H27.3103C27.7679 38.069 28.1378 37.6991 28.1378 37.2414C28.1378 36.7837 27.7679 36.4138 27.3103 36.4138Z" fill="#014593"/>
<path fill-rule="evenodd" clip-rule="evenodd" d="M6.62061 17.3792C6.62061 11.4471 11.4471 6.62061 17.3792 6.62061C23.3114 6.62061 28.1378 11.4471 28.1378 17.3792C28.1378 23.3114 23.3114 28.1378 17.3792 28.1378C11.4471 28.1378 6.62061 23.3114 6.62061 17.3792ZM21.259 13.4987C23.1599 13.7594 24.878 14.217 26.1218 14.8658C25.2578 11.8658 22.8926 9.50061 19.8918 8.63578C20.5406 9.87964 20.9983 11.5977 21.259 13.4987ZM21.4344 19.5674C21.4882 18.8457 21.5172 18.1125 21.5172 17.3792C21.5172 16.646 21.4882 15.9127 21.4344 15.1911C24.7249 15.7009 26.4827 16.7569 26.4827 17.3792C26.4827 18.0016 24.7249 19.0576 21.4344 19.5674ZM15.1911 21.4344C15.7009 24.7249 16.7569 26.4827 17.3792 26.4827C18.0016 26.4827 19.0576 24.7249 19.5674 21.4344C18.8457 21.4882 18.1125 21.5172 17.3792 21.5172C16.646 21.5172 15.9127 21.4882 15.1911 21.4344ZM17.3792 19.862C16.526 19.862 15.7348 19.8239 14.9958 19.7627C14.9345 19.0236 14.8965 18.2325 14.8965 17.3792C14.8965 16.526 14.9345 15.7348 14.9958 14.9958C15.7348 14.9345 16.526 14.8965 17.3792 14.8965C18.2325 14.8965 19.0236 14.9345 19.7627 14.9958C19.8239 15.7348 19.862 16.526 19.862 17.3792C19.862 18.2325 19.8239 19.0236 19.7627 19.7627C19.0236 19.8239 18.2325 19.862 17.3792 19.862ZM13.3241 15.1911C10.0336 15.7009 8.27578 16.7569 8.27578 17.3792C8.27578 18.0016 10.0336 19.0576 13.3241 19.5674C13.2703 18.8457 13.2413 18.1125 13.2413 17.3792C13.2413 16.646 13.2703 15.9127 13.3241 15.1911ZM17.3792 8.27578C18.0016 8.27578 19.0576 10.0336 19.5674 13.3241C18.8457 13.2703 18.1125 13.2413 17.3792 13.2413C16.646 13.2413 15.9127 13.2703 15.1911 13.3241C15.7009 10.0336 16.7569 8.27578 17.3792 8.27578ZM13.4987 13.4995C13.7594 11.5985 14.217 9.88047 14.8658 8.63661C11.8658 9.50061 9.50061 11.8658 8.63578 14.8667C9.87964 14.2178 11.5977 13.7602 13.4987 13.4995ZM8.63661 19.8926C9.88047 20.5414 11.5985 20.9991 13.4995 21.2598C13.7602 23.1607 14.2178 24.8788 14.8667 26.1227C11.8658 25.2578 9.50061 22.8926 8.63661 19.8926ZM21.2598 21.259C20.9991 23.1599 20.5414 24.878 19.8926 26.1218C22.8926 25.2578 25.2578 22.8926 26.1227 19.8918C24.8788 20.5406 23.1607 20.9983 21.2598 21.259Z" fill="#014593"/>
</svg>
