<svg width="48" height="38" viewBox="0 0 48 38" fill="none" xmlns="http://www.w3.org/2000/svg">
<path d="M10.7363 30.5562H17.3428H30.5557H37.1621V23.9497H30.5557H17.3428H10.7363V30.5562Z" fill="#FFDFBA"/>
<path fill-rule="evenodd" clip-rule="evenodd" d="M46.9547 0.00868573C47.4047 -0.0582046 47.8251 0.258079 47.8895 0.709795C47.9539 1.16151 47.6401 1.5802 47.1892 1.64461L28.028 4.38216C27.9198 4.71331 27.62 4.95609 27.2526 4.95609C26.9693 4.95609 26.7323 4.80497 26.5837 4.58861L21.7667 5.2765C22.1813 6.06432 22.9988 6.60771 23.9493 6.60771C24.406 6.60771 24.7751 6.97684 24.7751 7.43351V13.2142H27.2526C27.4722 13.2142 27.682 13.3009 27.8364 13.4561L30.8977 16.5174H33.859C36.1358 16.5174 37.988 18.3697 37.988 20.6464V27.2529V33.8593C37.988 36.1361 36.1358 37.9883 33.859 37.9883H14.0397C11.7629 37.9883 9.91063 36.1361 9.91063 33.8593V27.2529V20.6464C9.91063 18.3697 11.7629 16.5174 14.0397 16.5174H17.001L20.0623 13.4561C20.2167 13.3009 20.4264 13.2142 20.6461 13.2142H23.1235V8.17591C21.7015 7.88605 20.5454 6.86205 20.0639 5.51929L0.944021 8.25106C0.904382 8.25684 0.864743 8.25932 0.825931 8.25932C0.421285 8.25932 0.0678402 7.96285 0.00838216 7.55078C-0.0560307 7.09906 0.257776 6.68038 0.709492 6.61596L19.8451 3.88172C19.9764 1.72306 21.7576 0.00125347 23.9493 0.00125347C25.7372 0.00125347 27.2484 1.14995 27.8207 2.74211L46.9547 0.00868573ZM29.73 26.4271V21.4722H18.1687V26.4271H29.73ZM36.3364 21.4722V26.4271H31.3816V21.4722H36.3364ZM11.5622 26.4271H16.5171V21.4722H11.5622V26.4271ZM36.3364 33.8593C36.3364 35.2252 35.2249 36.3367 33.859 36.3367H14.0397C12.6738 36.3367 11.5622 35.2252 11.5622 33.8593V28.0787H17.3429H30.5558H36.3364V33.8593ZM30.5558 19.8206H36.1952C35.8542 18.8594 34.9359 18.169 33.859 18.169H14.0397C12.9628 18.169 12.0445 18.8594 11.7035 19.8206H17.3429H30.5558ZM19.3364 16.5174L20.988 14.8658H26.9107L28.5623 16.5174H19.3364ZM26.1328 2.98407C25.7174 2.19625 24.8998 1.65287 23.9493 1.65287C22.7503 1.65287 21.7486 2.50923 21.5215 3.64306L26.1328 2.98407Z" fill="#014593"/>
</svg>
