<svg width="40" height="48" viewBox="0 0 40 48" fill="none" xmlns="http://www.w3.org/2000/svg">
<path d="M13.4056 35.4097L15.1446 38.8877C16.0731 40.7448 16.5531 42.7828 16.5531 44.8523C16.5531 45.7179 16.9072 46.5048 17.4738 47.0792C18.0482 47.6458 18.8351 47.9999 19.7006 47.9999C20.5662 47.9999 21.3531 47.6458 21.9275 47.0792C22.4941 46.5048 22.8482 45.7179 22.8482 44.8523C22.8482 42.7828 23.3282 40.7448 24.2567 38.8877L25.9957 35.4097L26.3419 35.0635C24.4928 35.2759 22.2974 35.4097 19.7006 35.4097C17.1039 35.4097 14.9085 35.2759 13.0593 35.0635L13.4056 35.4097Z" fill="#FFDFBA"/>
<path d="M10.258 3.93433C4.35633 3.93433 3.96289 10.2294 3.96289 10.2294C3.96289 10.2294 7.50387 16.5245 16.5531 16.5245C16.5531 15.3442 16.1596 3.93433 10.258 3.93433Z" fill="#FFDFBA"/>
<path d="M29.1432 3.93433C23.2416 3.93433 22.8481 15.3442 22.8481 16.5245C31.8973 16.5245 35.4383 10.2294 35.4383 10.2294C35.4383 10.2294 35.0449 3.93433 29.1432 3.93433Z" fill="#FFDFBA"/>
<path fill-rule="evenodd" clip-rule="evenodd" d="M38.0296 25.4109C38.3372 25.1033 38.8346 25.1033 39.1422 25.4109C39.4499 25.7186 39.4499 26.2159 39.143 26.5236L37.3387 28.3279H38.5867C39.0218 28.3279 39.3736 28.6797 39.3736 29.1148C39.3736 29.5499 39.0218 29.9017 38.5867 29.9017H36.226V32.2623C36.226 32.6975 35.8743 33.0492 35.4391 33.0492C35.004 33.0492 34.6523 32.6975 34.6523 32.2623V30.5682C33.335 31.2536 30.8949 32.1514 26.7118 32.6605L26.6425 32.729L24.961 36.0921C24.093 37.8272 23.6351 39.7677 23.6351 41.705C23.6351 42.746 23.2275 43.7336 22.4878 44.4842C21.7292 45.2318 20.7417 45.6394 19.7006 45.6394C18.6596 45.6394 17.6721 45.2318 16.9214 44.4921C16.1738 43.7336 15.7662 42.746 15.7662 41.705C15.7662 39.7677 15.3083 37.8272 14.4411 36.0921L12.7595 32.729L12.6919 32.6613C8.49855 32.1514 6.0655 31.2512 4.74983 30.5658V32.2623C4.74983 32.6975 4.39809 33.0492 3.96294 33.0492C3.5278 33.0492 3.17606 32.6975 3.17606 32.2623V29.9017H0.815402C0.380255 29.9017 0.028517 29.5499 0.028517 29.1148C0.028517 28.6797 0.380255 28.3279 0.815402 28.3279H2.0634L0.259074 26.5236C-0.0485977 26.2159 -0.0485977 25.7186 0.259074 25.4109C0.566747 25.1033 1.06406 25.1033 1.37173 25.4109L4.51848 28.5585C4.51848 28.5585 4.51927 28.5585 4.52006 28.5593C4.53816 28.5766 6.52111 30.3722 13.149 31.1347C13.1494 31.1347 13.1497 31.1349 13.1501 31.135C13.1506 31.1353 13.1513 31.1355 13.1522 31.1355C15.1226 31.3606 17.3258 31.4755 19.7006 31.4755C22.0755 31.4755 24.2787 31.3606 26.2491 31.1347C26.2494 31.1347 26.2498 31.1346 26.2501 31.1344C26.2507 31.1342 26.2513 31.1339 26.2523 31.1339C32.8928 30.3699 34.8718 28.5679 34.8907 28.5498L38.0296 25.4109ZM22.0613 41.705C22.0613 39.5245 22.5767 37.3409 23.5532 35.3886L24.8193 32.8549C23.2251 32.9839 21.5105 33.0492 19.7006 33.0492C17.8908 33.0492 16.1762 32.9839 14.582 32.8549L15.8481 35.3886C16.8246 37.3409 17.34 39.5245 17.34 41.705C17.34 42.3305 17.5863 42.9254 18.034 43.3795C18.9271 44.2584 20.4671 44.2663 21.3751 43.3716C21.815 42.9254 22.0613 42.3305 22.0613 41.705Z" fill="#014593"/>
<path fill-rule="evenodd" clip-rule="evenodd" d="M37.3394 12.5886C36.7854 13.1426 36.6611 13.9774 37.0317 14.6652C39.8455 19.893 39.8047 19.9216 39.1344 20.3913L39.1343 20.3913C39.1004 20.4157 38.9155 20.5361 38.6677 20.5361C38.4701 20.5361 38.2317 20.459 37.9972 20.1954C37.8446 20.0231 37.7816 19.8028 37.8037 19.5903C37.6022 19.1449 37.0679 18.0527 35.646 15.4104C34.9441 14.1065 35.177 12.5256 36.2267 11.4759C36.9137 10.789 36.9137 9.67003 36.2267 8.98308L35.5532 8.30951C34.1989 10.1107 30.3243 14.1639 22.8481 14.1639H16.553C9.07684 14.1639 5.20221 10.1107 3.84798 8.30951L3.20038 8.95712C2.49847 9.65823 2.49847 10.8 3.20038 11.5019C4.22962 12.5296 4.483 14.0955 3.83303 15.3962L1.51959 20.0239C1.3811 20.3001 1.10333 20.459 0.81454 20.459C0.696507 20.459 0.576114 20.4323 0.463589 20.3772C0.074868 20.1828 -0.082509 19.7099 0.111852 19.3212L2.42529 14.6935C2.77231 13.9995 2.63618 13.1638 2.08772 12.6153C0.772048 11.2997 0.772048 9.16013 2.08772 7.84446L3.20746 6.72472C3.47421 4.23344 5.21559 0 10.2579 0C14.7692 0 16.4051 5.49561 17 9.44262H22.4012C22.996 5.49561 24.632 0 29.1432 0C34.1856 0 35.9269 4.23344 36.1937 6.72472L37.3394 7.87043C38.6401 9.17115 38.6401 11.2879 37.3394 12.5886ZM22.0864 12.5902C22.1061 12.1865 22.1415 11.6475 22.2044 11.0164H17.1959C17.2589 11.6475 17.2943 12.1865 17.3139 12.5902H22.0864ZM4.771 6.89469C4.90005 5.82216 5.70188 1.57377 10.2579 1.57377C14.4064 1.57377 15.5891 9.01692 15.7473 12.5729C8.65192 12.262 5.42569 7.90584 4.771 6.89469ZM29.1432 1.57377C24.9947 1.57377 23.8128 9.01613 23.6539 12.5729C30.6941 12.2573 33.9755 7.88223 34.6286 6.8939C34.4932 5.81508 33.6717 1.57377 29.1432 1.57377Z" fill="#014593"/>
</svg>
