<svg width="21" height="24" viewBox="0 0 21 24" fill="none" xmlns="http://www.w3.org/2000/svg">
<path d="M10.8027 23.2509C10.7681 23.2816 10.7355 23.3105 10.7048 23.3375C10.6742 23.3105 10.6415 23.2816 10.607 23.2509C10.3366 23.0111 9.94958 22.6616 9.48474 22.2248C8.55445 21.3505 7.31563 20.1292 6.07837 18.7387C4.83939 17.3463 3.61185 15.7952 2.69672 14.2613C1.77471 12.7158 1.20483 11.2451 1.20483 10C1.20483 4.75329 5.45813 0.5 10.7048 0.5C15.9515 0.5 20.2048 4.75329 20.2048 10C20.2048 11.2451 19.635 12.7158 18.7129 14.2613C17.7978 15.7952 16.5703 17.3463 15.3313 18.7387C14.094 20.1292 12.8552 21.3505 11.9249 22.2248C11.4601 22.6616 11.073 23.0111 10.8027 23.2509Z" stroke="#AB9A88"/>
<path d="M15.2048 10C15.2048 12.4853 13.1901 14.5 10.7048 14.5C8.21955 14.5 6.20483 12.4853 6.20483 10C6.20483 7.51472 8.21955 5.5 10.7048 5.5C13.1901 5.5 15.2048 7.51472 15.2048 10Z" stroke="#AB9A88"/>
</svg>
