<svg width="421" height="230" viewBox="0 0 421 230" fill="none" xmlns="http://www.w3.org/2000/svg">
<path fill-rule="evenodd" clip-rule="evenodd" d="M14.0323 142.226H38.9677V136H14.0323V142.226ZM38.9677 142.226H51V207V142.226H38.9677ZM26.4985 142.226H38.9677H26.4985ZM14.0323 142.226H2V147.336H24.118V150.139H2V153.296H24.118V156.103H2V159.256H24.118V162.06H2V165.219H24.118V168.023H2V171.18H24.118V173.983H2V177.14H24.118V179.944H2V183.1H24.118V185.904H2V189.06H24.118V191.864H2V195.021H24.118V197.824H2V200.981H24.118V203.785H2V207H26.4984V142.226H14.0323ZM28.882 150.139H51V147.336H28.882V150.139ZM2 147.336V150.139V147.336ZM28.882 156.103H51V153.296H28.882V156.103ZM2 153.296V156.103V153.296ZM28.882 162.06H51V159.256H28.882V162.06ZM2 159.256V162.06V159.256ZM28.882 168.023H51V165.219H28.882V168.023ZM2 165.219V168.023V165.219ZM28.882 173.983H51V171.18H28.882V173.983ZM2 171.18V173.983V171.18ZM28.882 179.944H51V177.14H28.882V179.944ZM2 177.14V179.944V177.14ZM28.882 185.904H51V183.1H28.882V185.904ZM2 183.1V185.904V183.1ZM28.882 191.864H51V189.06H28.882V191.864ZM2 189.06V191.864V189.06ZM28.882 197.824H51V195.021H28.882V197.824ZM2 195.021V197.824V195.021ZM28.882 203.785H51V200.981H28.882V203.785ZM2 200.981V203.785V200.981ZM26.4985 207H51H26.4985Z" fill="#CFDBE9"/>
<path fill-rule="evenodd" clip-rule="evenodd" d="M0 218H421V209H0V218Z" fill="#CFDBE9"/>
<path fill-rule="evenodd" clip-rule="evenodd" d="M56 164.57H86V163.43H56V164.57Z" fill="#CFDBE9"/>
<path fill-rule="evenodd" clip-rule="evenodd" d="M56 171.285H86V170.715H56V171.285Z" fill="#CFDBE9"/>
<path fill-rule="evenodd" clip-rule="evenodd" d="M56 181.285H86V180.715H56V181.285Z" fill="#CFDBE9"/>
<path fill-rule="evenodd" clip-rule="evenodd" d="M56 193.285H86V192.715H56V193.285Z" fill="#CFDBE9"/>
<path fill-rule="evenodd" clip-rule="evenodd" d="M70.231 162.917H71.769V161.083H70.231V162.917Z" fill="#CFDBE9"/>
<path fill-rule="evenodd" clip-rule="evenodd" d="M80.231 162.917H81.769V161.083H80.231V162.917Z" fill="#CFDBE9"/>
<path fill-rule="evenodd" clip-rule="evenodd" d="M61.8433 157.569L59.506 159.778V165H64.1807V159.778L61.8433 157.569ZM80.1566 157.569L77.8193 159.778V165H82.4971V159.778L80.1566 157.569ZM71 157.569L68.6595 159.778V165H73.3373V159.778L71 157.569ZM86 165H56L60.8705 156H81.1295L86 165Z" fill="#CFDBE9"/>
<path fill-rule="evenodd" clip-rule="evenodd" d="M61.232 162.917H62.768V161.083H61.232V162.917Z" fill="#CFDBE9"/>
<path fill-rule="evenodd" clip-rule="evenodd" d="M82.1579 196.393H80.2755L78.5882 198.865V207H83.8421V198.865L82.1579 196.393ZM72.4427 196.393H70.5604L68.8731 198.865V207H74.1269V198.865L72.4427 196.393ZM62.7276 196.393H60.8452L59.1579 198.865V207H64.4118V198.865L62.7276 196.393ZM82.1579 191.072H83.8421V185.221H82.1579V191.072ZM78.5913 191.072H80.2755V185.221H78.5913V191.072ZM72.4427 191.072H74.1269V185.221H72.4427V191.072ZM68.8762 191.072H70.5604V185.221H68.8762V191.072ZM62.7276 191.072H64.4118V185.221H62.7276V191.072ZM59.161 191.072H60.8452V185.221H59.161V191.072ZM82.1579 179.681H83.8421V173.83H82.1579V179.681ZM78.5913 179.681H80.2755V173.83H78.5913V179.681ZM72.4427 179.681H74.1269V173.83H72.4427V179.681ZM68.8762 179.681H70.5604V173.83H68.8762V179.681ZM62.7276 179.681H64.4118V173.83H62.7276V179.681ZM59.161 179.681H60.8452V173.83H59.161V179.681ZM82.1579 170.271H83.8421V167.441H82.1579V170.271ZM78.5913 170.271H80.2755V167.441H78.5913V170.271ZM72.4427 170.271H74.1269V167.441H72.4427V170.271ZM68.8762 170.271H70.5604V167.441H68.8762V170.271ZM62.7276 170.271H64.4118V167.441H62.7276V170.271ZM59.161 170.271H60.8452V167.441H59.161V170.271ZM57 207H86V166H57V207Z" fill="#CFDBE9"/>
<path fill-rule="evenodd" clip-rule="evenodd" d="M314 166.492H346V165.508H314V166.492Z" fill="#CFDBE9"/>
<path fill-rule="evenodd" clip-rule="evenodd" d="M314 189.471H346V188.529H314V189.471Z" fill="#CFDBE9"/>
<path fill-rule="evenodd" clip-rule="evenodd" d="M327.37 197.796V206.189H332.365V197.796C332.365 196.077 331.248 194.687 329.867 194.687C328.49 194.687 327.37 196.077 327.37 197.796ZM320.861 197.796V206.189H325.86V197.796C325.86 196.077 324.74 194.687 323.359 194.687C321.981 194.687 320.861 196.077 320.861 197.796ZM315.905 197.916V206.189H318.295V197.916C318.295 196.809 317.761 195.911 317.102 195.911C316.439 195.911 315.905 196.809 315.905 197.916ZM336.376 194.687C334.995 194.687 333.878 196.077 333.878 197.796V206.189H338.877V197.796C338.877 196.077 337.757 194.687 336.376 194.687ZM342.636 195.911C341.977 195.911 341.44 196.809 341.44 197.916V206.189H343.83V197.916C343.83 196.809 343.296 195.911 342.636 195.911ZM316.62 172.799H319.063V168.998H316.62V172.799ZM320.628 172.799H323.07V168.998H320.628V172.799ZM324.635 172.799H327.078V168.998H324.635V172.799ZM340.676 172.799H343.118V168.998H340.676V172.799ZM336.665 172.799H339.107V168.998H336.665V172.799ZM332.657 172.799H335.1V168.998H332.657V172.799ZM328.646 172.799H331.089V168.998H328.646V172.799ZM316.62 178.744H319.063V174.943H316.62V178.744ZM320.628 178.744H323.07V174.943H320.628V178.744ZM324.635 178.744H327.078V174.943H324.635V178.744ZM340.676 178.744H343.118V174.943H340.676V178.744ZM336.665 178.744H339.107V174.943H336.665V178.744ZM332.657 178.744H335.1V174.943H332.657V178.744ZM328.646 178.744H331.089V174.943H328.646V178.744ZM316.62 184.686H319.063V180.884H316.62V184.686ZM320.628 184.686H323.07V180.884H320.628V184.686ZM324.635 184.686H327.078V180.884H324.635V184.686ZM340.676 184.686H343.118V180.884H340.676V184.686ZM336.665 184.686H339.107V180.884H336.665V184.686ZM332.657 184.686H335.1V180.884H332.657V184.686ZM328.646 184.686H331.089V180.884H328.646V184.686ZM314.177 206.189H345.558V166.393H314.177V206.189Z" fill="#CFDBE9"/>
<mask id="mask0" mask-type="alpha" maskUnits="userSpaceOnUse" x="0" y="0" width="421" height="230">
<path fill-rule="evenodd" clip-rule="evenodd" d="M0 229.411H420.676V0.0699463H0V229.411Z" fill="white"/>
</mask>
<g mask="url(#mask0)">
<path fill-rule="evenodd" clip-rule="evenodd" d="M354.327 153.412H372.285V152.69H354.327V153.412Z" fill="#CFDBE9"/>
<path fill-rule="evenodd" clip-rule="evenodd" d="M350.608 164.244H376.001V163.521H350.608V164.244Z" fill="#CFDBE9"/>
<path fill-rule="evenodd" clip-rule="evenodd" d="M363.306 140.212L357.079 145.723H369.529L363.306 140.212Z" fill="#CFDBE9"/>
<path fill-rule="evenodd" clip-rule="evenodd" d="M364.242 151.001H366.292V146.862H364.242V151.001ZM360.32 151.001H362.37V146.862H360.32V151.001ZM358.396 152.69H368.213V145.724H358.396V152.69Z" fill="#CFDBE9"/>
<path fill-rule="evenodd" clip-rule="evenodd" d="M356.813 160.48H359.986V154.661H356.813V160.48ZM366.626 160.48H369.799V154.661H366.626V160.48ZM361.716 160.48H364.89V154.661H361.716V160.48ZM354.806 163.712H371.803V152.69H354.806V163.712Z" fill="#CFDBE9"/>
<path fill-rule="evenodd" clip-rule="evenodd" d="M353.907 200.955H357.08V195.136H353.907V200.955ZM369.529 200.955H372.703V195.136H369.529V200.955ZM361.716 200.955H364.89V195.136H361.716V200.955ZM353.907 188.521H357.08V182.702H353.907V188.521ZM369.529 188.524H372.703V182.705H369.529V188.524ZM361.716 188.524H364.89V182.705H361.716V188.524ZM353.907 176.09H357.08V170.272H353.907V176.09ZM369.529 176.09H372.703V170.272H369.529V176.09ZM361.716 176.09H364.89V170.272H361.716V176.09ZM366.746 204.233H367.875V165.474H366.746V204.233ZM358.734 204.236H359.863V165.477H358.734V204.236ZM350.976 206.189H375.636V163.521H350.976V206.189Z" fill="#CFDBE9"/>
<path fill-rule="evenodd" clip-rule="evenodd" d="M211.39 99.1329H209.285L210.246 83.6206H210.433L211.39 99.1329Z" fill="#CFDBE9"/>
<path fill-rule="evenodd" clip-rule="evenodd" d="M195.967 141.034C195.967 141.901 196.538 142.605 197.244 142.605C197.946 142.605 198.52 141.901 198.52 141.034C198.52 140.166 197.946 139.462 197.244 139.462C196.538 139.462 195.967 140.166 195.967 141.034ZM195.663 149.639V163.063H198.821V149.639C198.821 148.547 198.115 146.262 197.244 146.262C196.369 146.262 195.663 148.547 195.663 149.639ZM201.752 141.034C201.752 141.901 202.384 142.605 203.163 142.605C203.943 142.605 204.575 141.901 204.575 141.034C204.575 140.166 203.943 139.462 203.163 139.462C202.384 139.462 201.752 140.166 201.752 141.034ZM201.414 149.639V163.063H204.909V149.639C204.909 148.547 204.127 146.262 203.163 146.262C202.197 146.262 201.414 148.547 201.414 149.639ZM223.435 139.462C222.729 139.462 222.159 140.166 222.159 141.034C222.159 141.901 222.729 142.605 223.435 142.605C224.138 142.605 224.712 141.901 224.712 141.034C224.712 140.166 224.138 139.462 223.435 139.462ZM223.435 146.262C222.564 146.262 221.855 148.547 221.855 149.639V163.063H225.016V149.639C225.016 148.547 224.307 146.262 223.435 146.262ZM217.513 139.462C216.736 139.462 216.104 140.166 216.104 141.034C216.104 141.901 216.736 142.605 217.513 142.605C218.295 142.605 218.927 141.901 218.927 141.034C218.927 140.166 218.295 139.462 217.513 139.462ZM217.513 146.262C216.549 146.262 215.767 148.547 215.767 149.639V163.063H219.262V149.639C219.262 148.547 218.479 146.262 217.513 146.262ZM210.338 139.462C209.473 139.462 208.77 140.166 208.77 141.034C208.77 141.901 209.473 142.605 210.338 142.605C211.203 142.605 211.906 141.901 211.906 141.034C211.906 140.166 211.203 139.462 210.338 139.462ZM210.338 146.262C209.267 146.262 208.399 148.547 208.399 149.639V163.063H212.277V149.639C212.277 148.547 211.412 146.262 210.338 146.262ZM193.991 162.549H226.685V132.767H193.991V162.549Z" fill="#CFDBE9"/>
<path fill-rule="evenodd" clip-rule="evenodd" d="M227.943 163.063H234.636L231.288 157.865L227.943 163.063Z" fill="#CFDBE9"/>
<path fill-rule="evenodd" clip-rule="evenodd" d="M220.959 163.063H227.652L224.304 157.865L220.959 163.063Z" fill="#CFDBE9"/>
<path fill-rule="evenodd" clip-rule="evenodd" d="M213.977 163.063H220.669L217.321 157.865L213.977 163.063Z" fill="#CFDBE9"/>
<path fill-rule="evenodd" clip-rule="evenodd" d="M126.274 158.127C124.914 158.127 123.809 159.683 123.809 160.427V169.57H128.738V160.427C128.738 159.683 127.633 158.127 126.274 158.127ZM136.787 160.427V169.57H141.715V160.427C141.715 159.683 140.611 158.127 139.251 158.127C137.892 158.127 136.787 159.683 136.787 160.427ZM130.3 160.427V169.57H135.225V160.427C135.225 159.683 134.123 158.127 132.761 158.127C131.401 158.127 130.3 159.683 130.3 160.427ZM122.597 169.57H142.928V153.898H122.597V169.57Z" fill="#CFDBE9"/>
<path fill-rule="evenodd" clip-rule="evenodd" d="M206.992 163.063H213.685L210.337 157.865L206.992 163.063Z" fill="#CFDBE9"/>
<path fill-rule="evenodd" clip-rule="evenodd" d="M200.01 163.063H206.703L203.355 157.865L200.01 163.063Z" fill="#CFDBE9"/>
<path fill-rule="evenodd" clip-rule="evenodd" d="M193.026 163.063H199.719L196.371 157.865L193.026 163.063Z" fill="#CFDBE9"/>
<path fill-rule="evenodd" clip-rule="evenodd" d="M122.597 169.571H128.476L125.537 162.756L122.597 169.571Z" fill="#CFDBE9"/>
<path fill-rule="evenodd" clip-rule="evenodd" d="M128.476 169.571H134.359L131.416 162.756L128.476 169.571Z" fill="#CFDBE9"/>
<path fill-rule="evenodd" clip-rule="evenodd" d="M134.358 169.571H140.24L137.297 162.756L134.358 169.571Z" fill="#CFDBE9"/>
<path fill-rule="evenodd" clip-rule="evenodd" d="M150.023 169.571H155.906L152.963 162.756L150.023 169.571Z" fill="#CFDBE9"/>
<path fill-rule="evenodd" clip-rule="evenodd" d="M155.905 169.571H161.787L158.844 162.756L155.905 169.571Z" fill="#CFDBE9"/>
<path fill-rule="evenodd" clip-rule="evenodd" d="M161.786 169.571H167.669L164.726 162.756L161.786 169.571Z" fill="#CFDBE9"/>
<path fill-rule="evenodd" clip-rule="evenodd" d="M145.178 153.9C144.828 153.9 144.542 154.696 144.542 155.078V159.761H145.813V155.078C145.813 154.696 145.527 153.9 145.178 153.9ZM147.359 153.9C147.01 153.9 146.724 154.696 146.724 155.078V159.761H147.995V155.078C147.995 154.696 147.712 153.9 147.359 153.9ZM149.544 153.9C149.195 153.9 148.909 154.696 148.909 155.078V159.761H150.177V155.078C150.177 154.696 149.894 153.9 149.544 153.9ZM142.928 169.572H151.791V150.44H142.928V169.572Z" fill="#CFDBE9"/>
<path fill-rule="evenodd" clip-rule="evenodd" d="M151.791 150.44H142.929L144.997 136.696H149.723L151.791 150.44Z" fill="#CFDBE9"/>
<path fill-rule="evenodd" clip-rule="evenodd" d="M147.753 123.604L149.723 136.696H144.997L146.968 123.604H147.753Z" fill="#CFDBE9"/>
<path fill-rule="evenodd" clip-rule="evenodd" d="M167.667 169.571H173.55L170.607 162.756L167.667 169.571Z" fill="#CFDBE9"/>
<path fill-rule="evenodd" clip-rule="evenodd" d="M140.239 169.571H150.24L145.241 161.381L140.239 169.571Z" fill="#CFDBE9"/>
<path fill-rule="evenodd" clip-rule="evenodd" d="M122.597 169.571H112.596L117.595 161.381L122.597 169.571Z" fill="#CFDBE9"/>
<path fill-rule="evenodd" clip-rule="evenodd" d="M186.043 163.063H192.736L189.388 157.865L186.043 163.063Z" fill="#CFDBE9"/>
<path fill-rule="evenodd" clip-rule="evenodd" d="M213.007 110.158H210.337H207.671C199.143 117.342 196.289 122.779 196.289 132.768H210.337H224.389C224.389 122.779 221.535 117.342 213.007 110.158Z" fill="#CFDBE9"/>
<path fill-rule="evenodd" clip-rule="evenodd" d="M208.434 110.157H212.242V106.959H208.434V110.157Z" fill="#CFDBE9"/>
<path fill-rule="evenodd" clip-rule="evenodd" d="M208.854 105.359H211.822V99.1317H208.854V105.359Z" fill="#CFDBE9"/>
<path fill-rule="evenodd" clip-rule="evenodd" d="M207.369 106.959H213.304V105.359H207.369V106.959Z" fill="#CFDBE9"/>
<path fill-rule="evenodd" clip-rule="evenodd" d="M119.714 155.079V159.762H120.984V155.079C120.984 154.697 120.699 153.901 120.349 153.901C119.996 153.901 119.714 154.697 119.714 155.079ZM117.532 155.079V159.762H118.799V155.079C118.799 154.697 118.514 153.901 118.164 153.901C117.814 153.901 117.532 154.697 117.532 155.079ZM115.347 155.079V159.762H116.614V155.079C116.614 154.697 116.332 153.901 115.982 153.901C115.629 153.901 115.347 154.697 115.347 155.079ZM113.733 169.57H122.595V150.438H113.733V169.57Z" fill="#CFDBE9"/>
<path fill-rule="evenodd" clip-rule="evenodd" d="M114.703 175.441V180.485H117.373V175.441C117.373 175.029 116.774 174.171 116.038 174.171C115.301 174.171 114.703 175.029 114.703 175.441ZM143.666 175.441V180.485H146.332V175.441C146.332 175.029 145.737 174.171 145.001 174.171C144.261 174.171 143.666 175.029 143.666 175.441ZM150.745 174.62C150.395 174.62 150.113 175.42 150.113 175.798V180.485H151.38V175.798C151.38 175.42 151.095 174.62 150.745 174.62ZM152.93 174.62C152.58 174.62 152.295 175.42 152.295 175.798V180.485H153.565V175.798C153.565 175.42 153.28 174.62 152.93 174.62ZM155.112 174.62C154.762 174.62 154.477 175.42 154.477 175.798V180.485H155.747V175.798C155.747 175.42 155.462 174.62 155.112 174.62ZM157.297 174.62C156.947 174.62 156.662 175.42 156.662 175.798V180.485H157.929V175.798C157.929 175.42 157.647 174.62 157.297 174.62ZM159.479 174.62C159.129 174.62 158.844 175.42 158.844 175.798V180.485H160.114V175.798C160.114 175.42 159.832 174.62 159.479 174.62ZM161.664 174.62C161.311 174.62 161.028 175.42 161.028 175.798V180.485H162.296V175.798C162.296 175.42 162.014 174.62 161.664 174.62ZM163.846 174.62C163.496 174.62 163.21 175.42 163.21 175.798V180.485H164.481V175.798C164.481 175.42 164.195 174.62 163.846 174.62ZM166.03 174.62C165.678 174.62 165.395 175.42 165.395 175.798V180.485H166.663V175.798C166.663 175.42 166.38 174.62 166.03 174.62ZM168.212 174.62C167.863 174.62 167.577 175.42 167.577 175.798V180.485H168.848V175.798C168.848 175.42 168.562 174.62 168.212 174.62ZM138.618 175.798V180.485H139.885V175.798C139.885 175.42 139.603 174.62 139.253 174.62C138.9 174.62 138.618 175.42 138.618 175.798ZM136.433 175.798V180.485H137.703V175.798C137.703 175.42 137.418 174.62 137.068 174.62C136.718 174.62 136.433 175.42 136.433 175.798ZM134.251 175.798V180.485H135.518V175.798C135.518 175.42 135.236 174.62 134.886 174.62C134.533 174.62 134.251 175.42 134.251 175.798ZM132.066 175.798V180.485H133.336V175.798C133.336 175.42 133.051 174.62 132.701 174.62C132.351 174.62 132.066 175.42 132.066 175.798ZM129.884 175.798V180.485H131.151V175.798C131.151 175.42 130.869 174.62 130.519 174.62C130.169 174.62 129.884 175.42 129.884 175.798ZM127.699 175.798V180.485H128.97V175.798C128.97 175.42 128.684 174.62 128.334 174.62C127.984 174.62 127.699 175.42 127.699 175.798ZM125.517 175.798V180.485H126.788V175.798C126.788 175.42 126.502 174.62 126.152 174.62C125.803 174.62 125.517 175.42 125.517 175.798ZM123.335 175.798V180.485H124.603V175.798C124.603 175.42 124.317 174.62 123.968 174.62C123.618 174.62 123.335 175.42 123.335 175.798ZM121.15 175.798V180.485H122.421V175.798C122.421 175.42 122.135 174.62 121.786 174.62C121.433 174.62 121.15 175.42 121.15 175.798ZM167.215 186.346V195.493H172.14V186.346C172.14 185.602 171.036 184.046 169.679 184.046C168.317 184.046 167.215 185.602 167.215 186.346ZM159.712 186.346V195.493H164.637V186.346C164.637 185.602 163.536 184.046 162.176 184.046C160.814 184.046 159.712 185.602 159.712 186.346ZM152.212 186.346V195.493H157.137V186.346C157.137 185.602 156.036 184.046 154.673 184.046C153.314 184.046 152.212 185.602 152.212 186.346ZM144.709 186.346V195.493H149.637V186.346C149.637 185.602 148.533 184.046 147.173 184.046C145.814 184.046 144.709 185.602 144.709 186.346ZM137.206 186.346V195.493H142.134V186.346C142.134 185.602 141.033 184.046 139.67 184.046C138.311 184.046 137.206 185.602 137.206 186.346ZM129.706 186.346V195.493H134.634V186.346C134.634 185.602 133.53 184.046 132.17 184.046C130.811 184.046 129.706 185.602 129.706 186.346ZM122.203 186.346V195.493H127.131V186.346C127.131 185.602 126.027 184.046 124.667 184.046C123.308 184.046 122.203 185.602 122.203 186.346ZM114.703 186.346V195.493H119.628V186.346C119.628 185.602 118.527 184.046 117.167 184.046C115.805 184.046 114.703 185.602 114.703 186.346ZM112.595 205.783H174.249V169.573H112.595V205.783Z" fill="#CFDBE9"/>
<path fill-rule="evenodd" clip-rule="evenodd" d="M177.446 149.188C177.001 149.188 176.645 150.344 176.645 150.901V157.706H178.246V150.901C178.246 150.344 177.887 149.188 177.446 149.188ZM182.046 150.901V157.706H183.647V150.901C183.647 150.344 183.288 149.188 182.846 149.188C182.405 149.188 182.046 150.344 182.046 150.901ZM179.698 131.292V135.235H180.594V131.292C180.594 130.972 180.392 130.299 180.146 130.299C179.897 130.299 179.698 130.972 179.698 131.292ZM179.345 140.903V144.848H180.947V140.903C180.947 140.583 180.588 139.912 180.146 139.912C179.704 139.912 179.345 140.583 179.345 140.903ZM179.345 150.901V157.706H180.947V150.901C180.947 150.344 180.588 149.188 180.146 149.188C179.704 149.188 179.345 150.344 179.345 150.901ZM186.044 157.863H174.248L179.624 109.54H180.668L186.044 157.863Z" fill="#CFDBE9"/>
<path fill-rule="evenodd" clip-rule="evenodd" d="M180.671 185.839H181.702V182.25H180.671V185.839ZM178.59 185.842H179.622V182.253H178.59V185.842ZM180.671 193.272H181.702V188.506H180.671V193.272ZM178.59 193.276H179.622V188.509H178.59V193.276ZM177.682 170.413V179.556H182.61V170.413C182.61 169.669 181.506 168.113 180.146 168.113C178.784 168.113 177.682 169.669 177.682 170.413ZM179.631 198.55H180.662V197.009H179.631V198.55ZM174.251 206.189H186.044V157.865H174.251V206.189Z" fill="#CFDBE9"/>
<path fill-rule="evenodd" clip-rule="evenodd" d="M186.925 185.842H187.968V182.253H186.925V185.842Z" fill="#CFDBE9"/>
<path fill-rule="evenodd" clip-rule="evenodd" d="M232.707 185.839H233.754V182.25H232.707V185.839ZM228.825 185.842H229.869V182.253H228.825V185.842ZM230.765 185.842H231.808V182.253H230.765V185.842ZM225.726 185.839H226.769V182.25H225.726V185.839ZM221.841 185.842H222.887V182.253H221.841V185.842ZM223.784 185.842H224.827V182.253H223.784V185.842ZM218.739 185.839H219.785V182.25H218.739V185.839ZM214.86 185.842H215.903V182.253H214.86V185.842ZM216.799 185.842H217.842V182.253H216.799V185.842ZM190.807 185.839H191.853V182.25H190.807V185.839ZM231.811 193.272H232.842V188.506H231.811V193.272ZM229.734 193.276H230.765V188.509H229.734V193.276ZM224.83 193.272H225.861V188.506H224.83V193.272ZM222.752 193.276H223.784V188.509H222.752V193.276ZM217.846 193.272H218.877V188.506H217.846V193.272ZM215.768 193.276H216.799V188.509H215.768V193.276ZM210.861 193.272H211.892V188.506H210.861V193.272ZM208.784 193.276H209.815V188.509H208.784V193.276ZM203.88 193.272H204.911V188.506H203.88V193.272ZM201.799 193.276H202.83V188.509H201.799V193.276ZM196.895 193.272H197.926V188.506H196.895V193.272ZM194.818 193.276H195.849V188.509H194.818V193.276ZM189.911 193.272H190.942V188.506H189.911V193.272ZM231.811 198.55H232.842V197.009H231.811V198.55ZM229.734 198.55H230.765V197.009H229.734V198.55ZM224.827 198.55H225.858V197.009H224.827V198.55ZM222.752 198.55H223.784V197.009H222.752V198.55ZM217.842 198.55H218.874V197.009H217.842V198.55ZM215.768 198.55H216.799V197.009H215.768V198.55ZM210.861 198.55H211.892V197.009H210.861V198.55ZM208.784 198.55H209.815V197.009H208.784V198.55ZM203.877 198.55H204.908V197.009H203.877V198.55ZM201.799 198.55H202.83V197.009H201.799V198.55ZM196.895 198.55H197.926V197.009H196.895V198.55ZM194.818 198.55H195.849V197.009H194.818V198.55ZM189.911 198.55H190.942V197.009H189.911V198.55ZM187.833 198.55H188.865V197.009H187.833V198.55ZM187.833 193.276H188.865V188.509H187.833V193.276ZM188.868 185.839H189.911V182.25H188.868V185.839ZM193.91 185.842H194.956V182.253H193.91V185.842ZM197.791 185.839H198.835V182.25H197.791V185.839ZM195.852 185.839H196.895V182.25H195.852V185.839ZM200.894 185.842H201.937V182.253H200.894V185.842ZM204.773 185.839H205.819V182.25H204.773V185.839ZM202.833 185.839H203.877V182.25H202.833V185.839ZM207.875 185.842H208.922V182.253H207.875V185.842ZM211.757 185.839H212.801V182.25H211.757V185.839ZM209.815 185.839H210.861V182.25H209.815V185.839ZM186.925 170.413V179.556H191.853V170.413C191.853 169.669 190.749 168.113 189.389 168.113C188.03 168.113 186.925 169.669 186.925 170.413ZM193.91 170.413V179.556H198.835V170.413C198.835 169.669 197.733 168.113 196.371 168.113C195.011 168.113 193.91 169.669 193.91 170.413ZM200.894 170.413V179.556H205.819V170.413C205.819 169.669 204.718 168.113 203.355 168.113C201.996 168.113 200.894 169.669 200.894 170.413ZM231.29 168.113C229.927 168.113 228.825 169.669 228.825 170.413V179.556H233.754V170.413C233.754 169.669 232.649 168.113 231.29 168.113ZM224.305 168.113C222.946 168.113 221.841 169.669 221.841 170.413V179.556H226.769V170.413C226.769 169.669 225.665 168.113 224.305 168.113ZM217.324 168.113C215.961 168.113 214.86 169.669 214.86 170.413V179.556H219.785V170.413C219.785 169.669 218.683 168.113 217.324 168.113ZM210.339 168.113C208.977 168.113 207.875 169.669 207.875 170.413V179.556H212.801V170.413C212.801 169.669 211.699 168.113 210.339 168.113ZM186.044 206.189H234.635V163.063H186.044V206.189Z" fill="#CFDBE9"/>
<path fill-rule="evenodd" clip-rule="evenodd" d="M138.739 141.034H132.761H126.786L122.597 153.901H132.761H142.928L138.739 141.034Z" fill="#CFDBE9"/>
<path fill-rule="evenodd" clip-rule="evenodd" d="M113.734 150.44H122.596L120.528 136.696H115.802L113.734 150.44Z" fill="#CFDBE9"/>
<path fill-rule="evenodd" clip-rule="evenodd" d="M117.772 123.604L115.802 136.696H120.527L118.557 123.604H117.772Z" fill="#CFDBE9"/>
<path fill-rule="evenodd" clip-rule="evenodd" d="M291.941 160.426V169.572H296.866V160.426C296.866 159.682 295.765 158.126 294.405 158.126C293.043 158.126 291.941 159.682 291.941 160.426ZM281.428 158.126C280.065 158.126 278.963 159.682 278.963 160.426V169.572H283.889V160.426C283.889 159.682 282.787 158.126 281.428 158.126ZM287.915 158.126C286.556 158.126 285.451 159.682 285.451 160.426V169.572H290.379V160.426C290.379 159.682 289.274 158.126 287.915 158.126ZM277.748 169.572H298.082V153.9H277.748V169.572Z" fill="#CFDBE9"/>
<path fill-rule="evenodd" clip-rule="evenodd" d="M298.082 169.571H292.199L295.142 162.756L298.082 169.571Z" fill="#CFDBE9"/>
<path fill-rule="evenodd" clip-rule="evenodd" d="M292.2 169.571H286.318L289.261 162.756L292.2 169.571Z" fill="#CFDBE9"/>
<path fill-rule="evenodd" clip-rule="evenodd" d="M286.319 169.571H280.436L283.379 162.756L286.319 169.571Z" fill="#CFDBE9"/>
<path fill-rule="evenodd" clip-rule="evenodd" d="M270.653 169.571H264.774L267.714 162.756L270.653 169.571Z" fill="#CFDBE9"/>
<path fill-rule="evenodd" clip-rule="evenodd" d="M264.774 169.571H258.891L261.834 162.756L264.774 169.571Z" fill="#CFDBE9"/>
<path fill-rule="evenodd" clip-rule="evenodd" d="M258.893 169.571H253.01L255.953 162.756L258.893 169.571Z" fill="#CFDBE9"/>
<path fill-rule="evenodd" clip-rule="evenodd" d="M274.867 155.079V159.762H276.134V155.079C276.134 154.697 275.852 153.901 275.502 153.901C275.149 153.901 274.867 154.697 274.867 155.079ZM272.682 155.079V159.762H273.953V155.079C273.953 154.697 273.667 153.901 273.317 153.901C272.968 153.901 272.682 154.697 272.682 155.079ZM270.5 155.079V159.762H271.768V155.079C271.768 154.697 271.485 153.901 271.136 153.901C270.783 153.901 270.5 154.697 270.5 155.079ZM268.886 169.57H277.749V150.438H268.886V169.57Z" fill="#CFDBE9"/>
<path fill-rule="evenodd" clip-rule="evenodd" d="M268.885 150.44H277.748L275.68 136.696H270.954L268.885 150.44Z" fill="#CFDBE9"/>
<path fill-rule="evenodd" clip-rule="evenodd" d="M272.925 123.604L270.955 136.696H275.681L273.711 123.604H272.925Z" fill="#CFDBE9"/>
<path fill-rule="evenodd" clip-rule="evenodd" d="M253.011 169.571H247.129L250.071 162.756L253.011 169.571Z" fill="#CFDBE9"/>
<path fill-rule="evenodd" clip-rule="evenodd" d="M280.438 169.571H270.437L275.439 161.381L280.438 169.571Z" fill="#CFDBE9"/>
<path fill-rule="evenodd" clip-rule="evenodd" d="M298.082 169.571H308.083L303.081 161.381L298.082 169.571Z" fill="#CFDBE9"/>
<path fill-rule="evenodd" clip-rule="evenodd" d="M300.329 153.9C299.979 153.9 299.694 154.696 299.694 155.078V159.761H300.964V155.078C300.964 154.696 300.679 153.9 300.329 153.9ZM302.511 153.9C302.161 153.9 301.879 154.696 301.879 155.078V159.761H303.146V155.078C303.146 154.696 302.864 153.9 302.511 153.9ZM304.696 153.9C304.346 153.9 304.061 154.696 304.061 155.078V159.761H305.331V155.078C305.331 154.696 305.046 153.9 304.696 153.9ZM298.083 169.572H306.945V150.44H298.083V169.572Z" fill="#CFDBE9"/>
<path fill-rule="evenodd" clip-rule="evenodd" d="M304.64 174.172C303.904 174.172 303.305 175.03 303.305 175.442V180.483H305.975V175.442C305.975 175.03 305.377 174.172 304.64 174.172ZM275.678 174.172C274.941 174.172 274.343 175.03 274.343 175.442V180.483H277.012V175.442C277.012 175.03 276.417 174.172 275.678 174.172ZM269.298 175.799V180.483H270.565V175.799C270.565 175.418 270.283 174.621 269.93 174.621C269.58 174.621 269.298 175.418 269.298 175.799ZM267.113 175.799V180.483H268.383V175.799C268.383 175.418 268.098 174.621 267.748 174.621C267.398 174.621 267.113 175.418 267.113 175.799ZM264.931 175.799V180.483H266.198V175.799C266.198 175.418 265.916 174.621 265.566 174.621C265.213 174.621 264.931 175.418 264.931 175.799ZM262.746 175.799V180.483H264.016V175.799C264.016 175.418 263.731 174.621 263.381 174.621C263.031 174.621 262.746 175.418 262.746 175.799ZM260.564 175.799V180.483H261.831V175.799C261.831 175.418 261.549 174.621 261.199 174.621C260.846 174.621 260.564 175.418 260.564 175.799ZM258.379 175.799V180.483H259.65V175.799C259.65 175.418 259.364 174.621 259.014 174.621C258.664 174.621 258.379 175.418 258.379 175.799ZM256.197 175.799V180.483H257.465V175.799C257.465 175.418 257.182 174.621 256.829 174.621C256.483 174.621 256.197 175.418 256.197 175.799ZM254.012 175.799V180.483H255.283V175.799C255.283 175.418 254.997 174.621 254.648 174.621C254.298 174.621 254.012 175.418 254.012 175.799ZM251.83 175.799V180.483H253.101V175.799C253.101 175.418 252.816 174.621 252.466 174.621C252.113 174.621 251.83 175.418 251.83 175.799ZM281.428 174.621C281.075 174.621 280.793 175.418 280.793 175.799V180.483H282.06V175.799C282.06 175.418 281.775 174.621 281.428 174.621ZM283.607 174.621C283.26 174.621 282.975 175.418 282.975 175.799V180.483H284.245V175.799C284.245 175.418 283.96 174.621 283.607 174.621ZM285.792 174.621C285.442 174.621 285.157 175.418 285.157 175.799V180.483H286.427V175.799C286.427 175.418 286.145 174.621 285.792 174.621ZM287.977 174.621C287.627 174.621 287.342 175.418 287.342 175.799V180.483H288.609V175.799C288.609 175.418 288.327 174.621 287.977 174.621ZM290.159 174.621C289.809 174.621 289.524 175.418 289.524 175.799V180.483H290.794V175.799C290.794 175.418 290.512 174.621 290.159 174.621ZM292.344 174.621C291.991 174.621 291.708 175.418 291.708 175.799V180.483H292.976V175.799C292.976 175.418 292.694 174.621 292.344 174.621ZM294.526 174.621C294.176 174.621 293.893 175.418 293.893 175.799V180.483H295.161V175.799C295.161 175.418 294.875 174.621 294.526 174.621ZM296.711 174.621C296.358 174.621 296.075 175.418 296.075 175.799V180.483H297.346V175.799C297.346 175.418 297.06 174.621 296.711 174.621ZM298.892 174.621C298.543 174.621 298.257 175.418 298.257 175.799V180.483H299.525V175.799C299.525 175.418 299.242 174.621 298.892 174.621ZM251.002 184.044C249.639 184.044 248.538 185.603 248.538 186.345V195.491H253.463V186.345C253.463 185.603 252.361 184.044 251.002 184.044ZM258.502 184.044C257.139 184.044 256.038 185.603 256.038 186.345V195.491H260.966V186.345C260.966 185.603 259.861 184.044 258.502 184.044ZM266.002 184.044C264.642 184.044 263.541 185.603 263.541 186.345V195.491H268.466V186.345C268.466 185.603 267.364 184.044 266.002 184.044ZM273.505 184.044C272.145 184.044 271.041 185.603 271.041 186.345V195.491H275.969V186.345C275.969 185.603 274.864 184.044 273.505 184.044ZM281.005 184.044C279.645 184.044 278.544 185.603 278.544 186.345V195.491H283.469V186.345C283.469 185.603 282.367 184.044 281.005 184.044ZM288.508 184.044C287.148 184.044 286.044 185.603 286.044 186.345V195.491H290.969V186.345C290.969 185.603 289.87 184.044 288.508 184.044ZM296.008 184.044C294.648 184.044 293.547 185.603 293.547 186.345V195.491H298.472V186.345C298.472 185.603 297.37 184.044 296.008 184.044ZM303.511 184.044C302.148 184.044 301.047 185.603 301.047 186.345V195.491H305.975V186.345C305.975 185.603 304.87 184.044 303.511 184.044ZM246.429 205.781H308.083V169.571H246.429V205.781Z" fill="#CFDBE9"/>
<path fill-rule="evenodd" clip-rule="evenodd" d="M242.431 150.899V157.705H244.033V150.899C244.033 150.346 243.674 149.186 243.232 149.186C242.79 149.186 242.431 150.346 242.431 150.899ZM237.831 149.186C237.389 149.186 237.03 150.346 237.03 150.899V157.705H238.632V150.899C238.632 150.346 238.273 149.186 237.831 149.186ZM240.532 130.297C240.283 130.297 240.084 130.971 240.084 131.291V135.236H240.98V131.291C240.98 130.971 240.777 130.297 240.532 130.297ZM240.532 139.911C240.09 139.911 239.731 140.585 239.731 140.904V144.85H241.333V140.904C241.333 140.585 240.974 139.911 240.532 139.911ZM240.532 149.186C240.09 149.186 239.731 150.346 239.731 150.899V157.705H241.333V150.899C241.333 150.346 240.974 149.186 240.532 149.186ZM240.01 109.542H241.053L246.43 157.865H234.634L240.01 109.542Z" fill="#CFDBE9"/>
<path fill-rule="evenodd" clip-rule="evenodd" d="M238.977 185.842H240.008V182.253H238.977V185.842ZM241.054 185.839H242.085V182.25H241.054V185.839ZM238.977 193.276H240.008V188.509H238.977V193.276ZM241.054 193.272H242.085V188.506H241.054V193.272ZM240.533 168.113C239.17 168.113 238.068 169.669 238.068 170.413V179.556H242.994V170.413C242.994 169.669 241.892 168.113 240.533 168.113ZM240.017 198.547H241.048V197.006H240.017V198.547ZM234.635 206.189H246.428V157.865H234.635V206.189Z" fill="#CFDBE9"/>
<path fill-rule="evenodd" clip-rule="evenodd" d="M281.94 141.034H287.914H293.892L298.081 153.901H287.914H277.748L281.94 141.034Z" fill="#CFDBE9"/>
<path fill-rule="evenodd" clip-rule="evenodd" d="M306.945 150.44H298.082L300.151 136.696H304.876L306.945 150.44Z" fill="#CFDBE9"/>
<path fill-rule="evenodd" clip-rule="evenodd" d="M302.907 123.604L304.877 136.696H300.151L302.121 123.604H302.907Z" fill="#CFDBE9"/>
<path fill-rule="evenodd" clip-rule="evenodd" d="M381.181 206.189H407.444V169.522H381.181V206.189Z" fill="#CFDBE9"/>
<path fill-rule="evenodd" clip-rule="evenodd" d="M379.039 168.558H409.589V166.984H379.039V168.558Z" fill="#CFDBE9"/>
<path fill-rule="evenodd" clip-rule="evenodd" d="M381.608 165.406H407.02V160.731H381.608V165.406Z" fill="#CFDBE9"/>
<path fill-rule="evenodd" clip-rule="evenodd" d="M382.133 158.108H406.495V155.482H382.133V158.108Z" fill="#CFDBE9"/>
<path fill-rule="evenodd" clip-rule="evenodd" d="M387.842 152.409C388.087 152.409 388.287 152.209 388.287 151.963L388.851 55.0081C388.851 54.7621 388.652 54.5622 388.406 54.5622C388.161 54.5622 387.961 54.7621 387.961 55.0081L387.397 151.963C387.397 152.209 387.596 152.409 387.842 152.409ZM390.459 152.409H390.616C390.95 152.409 391.22 152.138 391.22 151.806V55.165C391.22 54.8297 390.95 54.5622 390.616 54.5622H390.459C390.125 54.5622 389.858 54.8297 389.858 55.165V151.806C389.858 152.138 390.125 152.409 390.459 152.409ZM401.231 151.963L400.666 55.0081C400.666 54.7621 400.467 54.5622 400.221 54.5622C399.976 54.5622 399.776 54.7621 399.776 55.0081L400.338 151.963C400.338 152.209 400.537 152.409 400.783 152.409C401.031 152.409 401.231 152.209 401.231 151.963ZM398.77 151.806V55.165C398.77 54.8297 398.499 54.5622 398.168 54.5622H398.008C397.677 54.5622 397.407 54.8297 397.407 55.165V151.806C397.407 152.138 397.677 152.409 398.008 152.409H398.168C398.499 152.409 398.77 152.138 398.77 151.806ZM395.256 55.2695C395.256 54.8789 394.937 54.5622 394.547 54.5622H394.08C393.688 54.5622 393.372 54.8789 393.372 55.2695V151.701C393.372 152.089 393.688 152.409 394.08 152.409H394.547C394.937 152.409 395.256 152.089 395.256 151.701V55.2695ZM402.041 155.481H386.584L387.842 51.4899H400.783L402.041 155.481Z" fill="#CFDBE9"/>
<path fill-rule="evenodd" clip-rule="evenodd" d="M395.254 34.1041H393.373H384.594L387.843 51.4893H394.312H400.781L404.031 34.1041H395.254Z" fill="#CFDBE9"/>
<path fill-rule="evenodd" clip-rule="evenodd" d="M401.148 3.54975C401.148 3.54975 402.759 0.831108 402.759 0.357497C402.759 -0.113037 401.599 -0.134565 400.166 1.30472C398.73 2.74093 398.318 6.89578 397.61 9.10391C397.165 10.494 396.358 11.6965 395.824 12.3946C395.695 11.9579 395.603 11.6688 395.566 11.5858C395.253 10.8753 395.379 10.208 394.314 10.208C393.246 10.208 393.375 10.8753 393.062 11.5858C393.025 11.6688 392.933 11.9579 392.801 12.3946C392.267 11.6965 391.463 10.494 391.018 9.10391C390.309 6.89578 389.895 2.74093 388.462 1.30472C387.026 -0.134565 385.869 -0.113037 385.869 0.357497C385.869 0.831108 387.48 3.54975 387.48 3.54975C387.48 3.54975 386.301 3.1561 386.301 4.21711C386.301 4.77068 387.164 5.83477 387.164 5.83477C387.164 5.83477 386.771 5.97931 386.535 6.55749C386.301 7.13566 387.575 8.19052 387.575 8.19052C387.575 8.19052 386.624 7.98139 386.624 8.76869C386.624 9.55599 387.949 10.208 387.949 10.208C387.949 10.208 386.731 10.1065 386.731 11.0937C386.731 12.0778 388.719 12.6099 388.719 12.6099C388.719 12.6099 387.084 13.2403 387.084 14.3044C387.084 15.2393 390.263 16.085 391.715 16.2726C390.423 21.018 388.716 27.6608 388.983 27.8146C389.388 28.0483 394.314 28.5619 394.314 28.5619C394.314 28.5619 399.239 28.0483 399.644 27.8146C399.908 27.6608 398.205 21.018 396.913 16.2726C398.364 16.085 401.541 15.2393 401.541 14.3044C401.541 13.2403 399.908 12.6099 399.908 12.6099C399.908 12.6099 401.893 12.0778 401.893 11.0937C401.893 10.1065 400.675 10.208 400.675 10.208C400.675 10.208 402.004 9.55599 402.004 8.76869C402.004 7.98139 401.053 8.19052 401.053 8.19052C401.053 8.19052 402.326 7.13566 402.093 6.55749C401.854 5.97931 401.464 5.83477 401.464 5.83477C401.464 5.83477 402.326 4.77068 402.326 4.21711C402.326 3.1561 401.148 3.54975 401.148 3.54975Z" fill="#CFDBE9"/>
<path fill-rule="evenodd" clip-rule="evenodd" d="M398.752 31.4386C398.752 33.8959 396.766 35.8857 394.314 35.8857C391.862 35.8857 389.874 33.8959 389.874 31.4386C389.874 28.9814 391.862 26.9885 394.314 26.9885C396.766 26.9885 398.752 28.9814 398.752 31.4386Z" fill="#CFDBE9"/>
<path fill-rule="evenodd" clip-rule="evenodd" d="M106.119 175.371H108.344V171.926H106.119V175.371ZM101.713 175.371H103.938V171.926H101.713V175.371ZM97.3061 175.371H99.531V171.926H97.3061V175.371ZM92.8964 175.371H95.1212V171.926H92.8964V175.371ZM88.4897 175.371H90.7145V171.926H88.4897V175.371ZM86.9707 175.534H109.866V169.34H86.9707V175.534Z" fill="#CFDBE9"/>
<path fill-rule="evenodd" clip-rule="evenodd" d="M88.4897 204.467H90.7145V201.022H88.4897V204.467ZM88.4897 199.728H90.7145V196.283H88.4897V199.728ZM88.4897 194.985H90.7145V191.541H88.4897V194.985ZM88.4897 190.246H90.7145V186.802H88.4897V190.246ZM88.4897 185.507H90.7145V182.063H88.4897V185.507ZM88.4897 180.768H90.7145V177.323H88.4897V180.768ZM92.8994 204.467H95.1243V201.022H92.8994V204.467ZM92.8994 199.728H95.1243V196.283H92.8994V199.728ZM92.8994 194.985H95.1243V191.541H92.8994V194.985ZM92.8994 190.246H95.1243V186.802H92.8994V190.246ZM92.8994 185.507H95.1243V182.063H92.8994V185.507ZM92.8994 180.768H95.1243V177.323H92.8994V180.768ZM97.3061 204.467H99.531V201.022H97.3061V204.467ZM97.3061 199.728H99.531V196.283H97.3061V199.728ZM97.3061 194.985H99.531V191.541H97.3061V194.985ZM97.3061 190.246H99.531V186.802H97.3061V190.246ZM97.3061 185.507H99.531V182.063H97.3061V185.507ZM97.3061 180.768H99.531V177.323H97.3061V180.768ZM101.716 204.467H103.941V201.022H101.716V204.467ZM101.716 199.728H103.941V196.283H101.716V199.728ZM101.716 194.985H103.941V191.541H101.716V194.985ZM101.716 190.246H103.941V186.802H101.716V190.246ZM101.716 185.507H103.941V182.063H101.716V185.507ZM101.716 180.768H103.941V177.323H101.716V180.768ZM106.123 204.467H108.347V201.022H106.123V204.467ZM106.123 199.728H108.347V196.283H106.123V199.728ZM106.123 194.985H108.347V191.541H106.123V194.985ZM106.123 190.246H108.347V186.802H106.123V190.246ZM106.123 185.507H108.347V182.063H106.123V185.507ZM106.123 180.768H108.347V177.323H106.123V180.768ZM86.9707 206.189H109.866V175.534H86.9707V206.189Z" fill="#CFDBE9"/>
</g>
</svg>
